<svg xmlns="http://www.w3.org/2000/svg" width="1600" height="856" viewBox="0 0 1600 856">
  <rect width="1600" height="856" fill="#f7f6f2"/>
  <style>
    .sans { font-family: Arial, Helvetica, sans-serif; }
    .mono { font-family: "Courier New", Courier, monospace; }
    .black { fill: #111111; }
    .orange { fill: #ff4b00; }
  </style>

  <rect x="28" y="28" width="1544" height="800" fill="none" stroke="#111111" stroke-width="4"/>
  <line x1="28" y1="126" x2="1572" y2="126" stroke="#111111" stroke-width="4"/>

  <text x="70" y="92" class="sans black" font-weight="800" font-size="54">TwelveCheck</text>
  <rect x="1265" y="52" width="238" height="50" fill="#ff4b00"/>
  <text x="1384" y="87" class="mono" fill="#ffffff" font-weight="700" font-size="25" text-anchor="middle">MINI REVIEW</text>

  <text x="72" y="226" class="mono orange" font-weight="700" font-size="25">4-HOUR PUBLIC-BUILD CHECK</text>
  <text x="72" y="312" class="sans black" font-weight="900" font-size="66">One critical journey.</text>
  <text x="72" y="386" class="sans black" font-weight="900" font-size="66">Four launch checks.</text>
  <text x="72" y="460" class="sans black" font-weight="900" font-size="66">Evidence in four hours.</text>

  <text x="74" y="526" class="mono black" font-size="23">Human review · timestamped findings · P0 / P1 / P2</text>
  <text x="74" y="560" class="mono black" font-size="23">one focused retest · public paths only</text>

  <rect x="72" y="610" width="560" height="110" fill="#ff4b00"/>
  <text x="102" y="657" class="mono" fill="#ffffff" font-weight="700" font-size="25">TOTAL</text>
  <text x="102" y="701" class="sans" fill="#ffffff" font-weight="900" font-size="47">$39</text>
  <text x="260" y="693" class="mono" fill="#ffffff" font-weight="700" font-size="24">$19.50 deposit today</text>

  <rect x="884" y="176" width="620" height="544" rx="4" fill="#ffffff" stroke="#111111" stroke-width="4"/>
  <text x="926" y="224" class="mono black" font-weight="700" font-size="22">MINI PROOF PACK · PUBLIC BUILD</text>
  <line x1="926" y1="248" x2="1460" y2="248" stroke="#111111" stroke-width="3" stroke-dasharray="11 8"/>
  <text x="926" y="306" class="sans black" font-weight="900" font-size="40">One journey. Clear verdict.</text>

  <rect x="926" y="344" width="534" height="68" fill="#fff0e9"/>
  <text x="948" y="388" class="mono orange" font-weight="700" font-size="23">01</text>
  <text x="1020" y="388" class="mono black" font-weight="700" font-size="23">ENTRY</text>
  <text x="1250" y="388" class="mono orange" font-weight="700" font-size="21">OBSERVED</text>

  <line x1="926" y1="428" x2="1460" y2="428" stroke="#dedbd3" stroke-width="2"/>
  <text x="948" y="472" class="mono black" font-weight="700" font-size="23">02</text>
  <text x="1020" y="472" class="mono black" font-weight="700" font-size="23">KEY ACTION</text>
  <text x="1250" y="472" class="mono black" font-weight="700" font-size="21">CHECKED</text>

  <line x1="926" y1="488" x2="1460" y2="488" stroke="#dedbd3" stroke-width="2"/>
  <text x="948" y="532" class="mono black" font-weight="700" font-size="23">03</text>
  <text x="1020" y="532" class="mono black" font-weight="700" font-size="23">CONFIRMATION</text>
  <text x="1250" y="532" class="mono black" font-weight="700" font-size="21">CHECKED</text>

  <line x1="926" y1="548" x2="1460" y2="548" stroke="#dedbd3" stroke-width="2"/>
  <text x="948" y="592" class="mono black" font-weight="700" font-size="23">04</text>
  <text x="1020" y="592" class="mono black" font-weight="700" font-size="23">RECOVERY</text>
  <text x="1250" y="592" class="mono black" font-weight="700" font-size="21">CHECKED</text>

  <line x1="926" y1="628" x2="1460" y2="628" stroke="#111111" stroke-width="3" stroke-dasharray="11 8"/>
  <text x="926" y="674" class="mono black" font-size="19">CLOCK STARTS AFTER DEPOSIT + SCOPE ACCEPTANCE</text>

  <line x1="72" y1="774" x2="1528" y2="774" stroke="#111111" stroke-width="4"/>
  <text x="72" y="810" class="mono black" font-weight="700" font-size="20">NO CREDENTIALS</text>
  <text x="318" y="810" class="mono black" font-weight="700" font-size="20">NO SECURITY CLAIMS</text>
  <text x="638" y="810" class="mono black" font-weight="700" font-size="20">NO SCOPE DRIFT</text>
  <text x="1528" y="810" class="mono orange" font-weight="700" font-size="20" text-anchor="end">THREE MINI SLOTS</text>
</svg>
